<svg width="60" height="48" viewBox="0 0 60 48" fill="none" xmlns="http://www.w3.org/2000/svg">
<path d="M11.3332 21.3333H48.6665C54.5332 21.3333 59.3332 16.5333 59.3332 10.6667C59.3332 4.8 54.5332 0 48.6665 0H11.3332C5.4665 0 0.666504 4.8 0.666504 10.6667C0.666504 16.5333 5.4665 21.3333 11.3332 21.3333ZM11.3332 5.33333C14.2665 5.33333 16.6665 7.73333 16.6665 10.6667C16.6665 13.6 14.2665 16 11.3332 16C8.39984 16 5.99984 13.6 5.99984 10.6667C5.99984 7.73333 8.39984 5.33333 11.3332 5.33333Z" fill="black"/>
<path d="M48.6665 26.6667H11.3332C5.4665 26.6667 0.666504 31.4667 0.666504 37.3334C0.666504 43.2 5.4665 48 11.3332 48H48.6665C54.5332 48 59.3332 43.2 59.3332 37.3334C59.3332 31.4667 54.5332 26.6667 48.6665 26.6667ZM48.6665 42.6667C45.7332 42.6667 43.3332 40.2667 43.3332 37.3334C43.3332 34.4 45.7332 32 48.6665 32C51.5998 32 53.9998 34.4 53.9998 37.3334C53.9998 40.2667 51.5998 42.6667 48.6665 42.6667Z" fill="black"/>
</svg>
