<svg width="64" height="64" viewBox="0 0 64 64" fill="none" xmlns="http://www.w3.org/2000/svg">
<path d="M57.0601 34.7999L47.7801 28.9999L57.0601 23.1999C57.3495 23.0205 57.5883 22.7703 57.754 22.4728C57.9196 22.1753 58.0065 21.8404 58.0065 21.4999C58.0065 21.1594 57.9196 20.8246 57.754 20.5271C57.5883 20.2296 57.3495 19.9793 57.0601 19.7999L45.0601 12.2999C44.7422 12.1012 44.3749 11.9959 44.0001 11.9959C43.6252 11.9959 43.2579 12.1012 42.9401 12.2999L32.0001 19.1399L21.0601 12.2999C20.7422 12.1012 20.3749 11.9959 20.0001 11.9959C19.6252 11.9959 19.258 12.1012 18.9401 12.2999L6.94009 19.7999C6.65067 19.9793 6.41183 20.2296 6.24621 20.5271C6.08058 20.8246 5.99365 21.1594 5.99365 21.4999C5.99365 21.8404 6.08058 22.1753 6.24621 22.4728C6.41183 22.7703 6.65067 23.0205 6.94009 23.1999L16.2201 28.9999L6.94009 34.7999C6.65067 34.9793 6.41183 35.2296 6.24621 35.5271C6.08058 35.8246 5.99365 36.1594 5.99365 36.4999C5.99365 36.8404 6.08058 37.1753 6.24621 37.4728C6.41183 37.7703 6.65067 38.0205 6.94009 38.1999L18.9401 45.6999C19.258 45.8986 19.6252 46.0039 20.0001 46.0039C20.3749 46.0039 20.7422 45.8986 21.0601 45.6999L32.0001 38.8599L42.9401 45.6999C43.2579 45.8986 43.6252 46.0039 44.0001 46.0039C44.3749 46.0039 44.7422 45.8986 45.0601 45.6999L57.0601 38.1999C57.3495 38.0205 57.5883 37.7703 57.754 37.4728C57.9196 37.1753 58.0065 36.8404 58.0065 36.4999C58.0065 36.1594 57.9196 35.8246 57.754 35.5271C57.5883 35.2296 57.3495 34.9793 57.0601 34.7999ZM32.0001 34.1399L23.7801 28.9999L32.0001 23.8599L40.2201 28.9999L32.0001 34.1399ZM44.0001 16.3599L52.2201 21.4999L44.0001 26.6399L35.7801 21.4999L44.0001 16.3599ZM20.0001 16.3599L28.2201 21.4999L20.0001 26.6399L11.7801 21.4999L20.0001 16.3599ZM20.0001 41.6399L11.7801 36.4999L20.0001 31.3599L28.2201 36.4999L20.0001 41.6399ZM44.0001 41.6399L35.7801 36.4999L44.0001 31.3599L52.2201 36.4999L44.0001 41.6399Z" fill="black"/>
<path d="M38.9805 47.48L32.0005 51.66L25.0205 47.48C24.5693 47.2761 24.0585 47.2468 23.587 47.3977C23.1154 47.5487 22.7166 47.8692 22.4678 48.2973C22.2189 48.7253 22.1377 49.2304 22.2398 49.7149C22.3419 50.1994 22.62 50.6288 23.0205 50.92L31.0205 55.72C31.3245 55.8955 31.6694 55.9879 32.0205 55.9879C32.3715 55.9879 32.7164 55.8955 33.0205 55.72L41.0205 50.92C41.2755 50.8047 41.5035 50.6373 41.6897 50.4284C41.8759 50.2195 42.0162 49.9738 42.1015 49.7073C42.1869 49.4408 42.2153 49.1593 42.185 48.8811C42.1548 48.6029 42.0665 48.3342 41.9258 48.0922C41.7851 47.8503 41.5953 47.6406 41.3685 47.4766C41.1417 47.3127 40.883 47.1982 40.6092 47.1405C40.3354 47.0827 40.0525 47.0832 39.7788 47.1416C39.5051 47.2001 39.2468 47.3154 39.0205 47.48H38.9805Z" fill="black"/>
</svg>
